# xmcd CD database file
#
# Track frame offsets:
#	182
#	29045
#	60077
#	78537
#	96897
#	115265
#	134130
#	153900
#	174230
#	201852
#	220962
#	241955
#
# Disc length: 3487 seconds
#
# Revision: 0
# Processed by: cddbd v1.5.2PL0 Copyright (c) Steve Scherf et al.
# Submitted via: CDex 1.70beta2
#
DISCID=a40d9d0c
DTITLE=NorthSound - Wild Bird Series - Birdland
DYEAR=1995
DGENRE=New Age
TTITLE0=Birdland
TTITLE1=Night Owl
TTITLE2=Home Nest
TTITLE3=South Bound
TTITLE4=Mountain Swing
TTITLE5=Hot Stuff
TTITLE6=Beach Walk
TTITLE7=Big Birds
TTITLE8=Smokin'
TTITLE9=Cool
TTITLE10=Soft Glide
TTITLE11=Voices Of The Forest
EXTD=YEAR: 1995
EXTT0=
EXTT1=
EXTT2=
EXTT3=
EXTT4=
EXTT5=
EXTT6=
EXTT7=
EXTT8=
EXTT9=
EXTT10=
EXTT11=
PLAYORDER=
